<?xml version="1.0" encoding="UTF-8" standalone="no"?>
<!-- Created with Inkscape (http://www.inkscape.org/) -->

<svg
   version="1.1"
   id="svg1"
   width="872.48401"
   height="233.87241"
   viewBox="0 0 872.48399 233.87241"
   xmlns="http://www.w3.org/2000/svg"
   xmlns:svg="http://www.w3.org/2000/svg">
  <defs
     id="defs1">
    <clipPath
       clipPathUnits="userSpaceOnUse"
       id="clipPath38">
      <path
         d="M 0,325.327 H 841.89 V 0 H 0 Z"
         transform="translate(-285.97958,-172.92991)"
         id="path38" />
    </clipPath>
    <clipPath
       clipPathUnits="userSpaceOnUse"
       id="clipPath40">
      <path
         d="M 0,325.327 H 841.89 V 0 H 0 Z"
         transform="translate(-355.62511,-152.4064)"
         id="path40" />
    </clipPath>
    <clipPath
       clipPathUnits="userSpaceOnUse"
       id="clipPath42">
      <path
         d="M 0,325.327 H 841.89 V 0 H 0 Z"
         transform="translate(-400.81449,-181.756)"
         id="path42" />
    </clipPath>
    <clipPath
       clipPathUnits="userSpaceOnUse"
       id="clipPath44">
      <path
         d="M 0,325.327 H 841.89 V 0 H 0 Z"
         transform="translate(-451.42681,-201.21601)"
         id="path44" />
    </clipPath>
    <clipPath
       clipPathUnits="userSpaceOnUse"
       id="clipPath46">
      <path
         d="M 0,325.327 H 841.89 V 0 H 0 Z"
         transform="translate(-547.02061,-168.0383)"
         id="path46" />
    </clipPath>
    <clipPath
       clipPathUnits="userSpaceOnUse"
       id="clipPath48">
      <path
         d="M 0,325.327 H 841.89 V 0 H 0 Z"
         id="path48" />
    </clipPath>
    <clipPath
       clipPathUnits="userSpaceOnUse"
       id="clipPath50">
      <path
         d="M 0,325.327 H 841.89 V 0 H 0 Z"
         transform="translate(-632.61534,-201.21601)"
         id="path50" />
    </clipPath>
    <clipPath
       clipPathUnits="userSpaceOnUse"
       id="clipPath52">
      <path
         d="M 0,325.327 H 841.89 V 0 H 0 Z"
         transform="translate(-766.17002,-133.0529)"
         id="path52" />
    </clipPath>
    <clipPath
       clipPathUnits="userSpaceOnUse"
       id="clipPath54">
      <path
         d="M 0,325.327 H 841.89 V 0 H 0 Z"
         transform="translate(-600.14394,-102.9077)"
         id="path54" />
    </clipPath>
    <clipPath
       clipPathUnits="userSpaceOnUse"
       id="clipPath56">
      <path
         d="M 0,325.327 H 841.89 V 0 H 0 Z"
         transform="translate(-769.58372,-115.4002)"
         id="path56" />
    </clipPath>
    <clipPath
       clipPathUnits="userSpaceOnUse"
       id="clipPath58">
      <path
         d="M 0,325.327 H 841.89 V 0 H 0 Z"
         transform="translate(-626.24319,-82.780902)"
         id="path58" />
    </clipPath>
    <clipPath
       clipPathUnits="userSpaceOnUse"
       id="clipPath60">
      <path
         d="M 0,325.327 H 841.89 V 0 H 0 Z"
         transform="translate(-643.87022,-95.673005)"
         id="path60" />
    </clipPath>
    <clipPath
       clipPathUnits="userSpaceOnUse"
       id="clipPath62">
      <path
         d="M 0,325.327 H 841.89 V 0 H 0 Z"
         transform="translate(-676.66224,-86.2292)"
         id="path62" />
    </clipPath>
    <clipPath
       clipPathUnits="userSpaceOnUse"
       id="clipPath64">
      <path
         d="M 0,325.327 H 841.89 V 0 H 0 Z"
         transform="translate(-718.89654,-90.7355)"
         id="path64" />
    </clipPath>
    <clipPath
       clipPathUnits="userSpaceOnUse"
       id="clipPath66">
      <path
         d="M 0,325.327 H 841.89 V 0 H 0 Z"
         transform="translate(-730.88192,-95.046102)"
         id="path66" />
    </clipPath>
  </defs>
  <g
     id="layer-MC0"
     transform="translate(-1312.296,-94.224661)">
    <path
       id="path34"
       d="m 0,0 -509.05,44.667 -3.125,0.278 -4.089,-44.483 h 6.298 l 3.484,37.68 L -71.098,0 Z"
       style="fill:#ffffff;fill-opacity:1;fill-rule:nonzero;stroke:none"
       transform="matrix(1.3333333,0,0,-1.3333333,2012.66,154.15133)" />
    <path
       id="path35"
       d="m 127.332,201.216 h 23.395 V 125.29 h -23.395 z"
       style="fill:#e63135;fill-opacity:1;fill-rule:nonzero;stroke:none"
       transform="matrix(1.3333333,0,0,-1.3333333,1142.52,433.76933)" />
    <path
       id="path36"
       d="m 0,0 h 23.927 l 22.118,-40.622 h 0.213 V 0 H 68.376 V -75.926 H 45.619 L 22.331,-34.454 H 22.119 V -75.926 H 0 Z"
       style="fill:#e63135;fill-opacity:1;fill-rule:nonzero;stroke:none"
       transform="matrix(1.3333333,0,0,-1.3333333,1356.1035,165.48133)" />
    <path
       id="path37"
       d="m 0,0 c -0.531,2.765 -2.552,11.166 -12.229,11.166 -10.953,0 -14.461,-10.634 -14.461,-20.843 0,-10.208 3.508,-20.842 14.461,-20.842 7.87,0 10.847,5.423 12.335,12.654 h 22.97 c 0,-15.313 -12.442,-31.582 -34.667,-31.582 -24.564,0 -38.494,17.333 -38.494,39.77 0,23.82 15.1,39.771 38.494,39.771 C 9.358,29.987 20.736,19.141 22.757,0 Z"
       style="fill:#ffffff;fill-opacity:1;fill-rule:nonzero;stroke:none"
       transform="matrix(1.3333333,0,0,-1.3333333,1523.8261,203.19613)"
       clip-path="url(#clipPath38)" />
    <path
       id="path39"
       d="M 0,0 -6.806,23.395 H -7.018 L -14.355,0 Z M -18.396,48.81 H 4.467 L 32.114,-27.116 H 7.869 L 4.68,-16.27 h -24.14 l -3.402,-10.846 h -23.501 z"
       style="fill:#ffffff;fill-opacity:1;fill-rule:nonzero;stroke:none"
       transform="matrix(1.3333333,0,0,-1.3333333,1616.6868,230.5608)"
       clip-path="url(#clipPath40)" />
    <path
       id="path41"
       d="m 0,0 h -21.268 v 19.46 h 65.93 V 0 H 23.395 V -56.466 H 0 Z"
       style="fill:#ffffff;fill-opacity:1;fill-rule:nonzero;stroke:none"
       transform="matrix(1.3333333,0,0,-1.3333333,1676.9393,191.428)"
       clip-path="url(#clipPath42)" />
    <path
       id="path43"
       d="M 0,0 H 62.846 V -19.46 H 23.395 v -9.464 H 59.23 V -47.002 H 23.395 v -9.464 h 40.621 v -19.46 H 0 Z"
       style="fill:#ffffff;fill-opacity:1;fill-rule:nonzero;stroke:none"
       transform="matrix(1.3333333,0,0,-1.3333333,1744.4224,165.48133)"
       clip-path="url(#clipPath44)" />
    <path
       id="path45"
       d="m 0,0 h 12.229 c 4.36,0 10.315,0.745 10.315,7.55 0,4.785 -2.659,7.55 -11.592,7.55 H 0 Z m -23.395,33.178 h 44.556 c 13.186,0 24.777,-7.338 24.777,-21.694 0,-7.868 -3.616,-16.163 -11.378,-19.034 6.38,-2.446 10.315,-9.464 11.166,-18.928 0.318,-3.616 0.318,-12.974 2.551,-16.27 H 24.883 c -1.17,3.828 -1.595,7.763 -1.914,11.697 -0.532,7.231 -1.277,14.781 -10.528,14.781 H 0 v -26.478 h -23.395 z"
       style="fill:#ffffff;fill-opacity:1;fill-rule:nonzero;stroke:none"
       transform="matrix(1.3333333,0,0,-1.3333333,1871.8808,209.71827)"
       clip-path="url(#clipPath46)" />
    <path
       id="path47"
       d="m 599.759,201.216 h 23.395 V 125.29 h -23.395 z"
       style="fill:#ffffff;fill-opacity:1;fill-rule:nonzero;stroke:none"
       transform="matrix(1.3333333,0,0,-1.3333333,1142.52,433.76933)"
       clip-path="url(#clipPath48)" />
    <path
       id="path49"
       d="m 0,0 h 23.926 l 22.118,-40.622 h 0.213 V 0 H 68.375 V -75.926 H 45.619 L 22.331,-34.454 H 22.118 V -75.926 H 0 Z"
       style="fill:#ffffff;fill-opacity:1;fill-rule:nonzero;stroke:none"
       transform="matrix(1.3333333,0,0,-1.3333333,1986.0071,165.48133)"
       clip-path="url(#clipPath50)" />
    <path
       id="path51"
       d="m 0,0 c -5.211,-6.806 -13.187,-9.57 -21.587,-9.57 -22.437,0 -36.262,17.439 -36.262,39.026 0,28.924 20.417,40.515 37.432,40.515 19.46,0 31.582,-10.421 34.985,-28.393 H -7.869 c -0.851,5.53 -5.53,9.464 -11.06,9.464 -16.056,0 -15.525,-16.907 -15.525,-22.118 0,-7.125 2.977,-19.566 17.12,-19.566 5.424,0 10.953,2.765 12.123,8.401 h -10.314 v 16.269 h 31.05 V -7.763 H 0.744 Z"
       style="fill:#ffffff;fill-opacity:1;fill-rule:nonzero;stroke:none"
       transform="matrix(1.3333333,0,0,-1.3333333,2164.08,256.36547)"
       clip-path="url(#clipPath52)" />
    <path
       id="path53"
       d="m 0,0 -143.585,12.724 h -71.078 L -1.564,-6.16 C -1.304,-3.905 -0.769,-1.848 0,0"
       style="fill:#ffffff;fill-opacity:1;fill-rule:nonzero;stroke:none"
       transform="matrix(1.3333333,0,0,-1.3333333,1942.7119,296.55907)"
       clip-path="url(#clipPath54)" />
    <path
       id="path55"
       d="m 0,0 -2.13,-27.319 -16.3,1.444 c -1.486,-2.464 -3.641,-4.417 -6.324,-5.737 L 0.438,-33.844 3.563,-34.122 6.296,0 Z"
       style="fill:#ffffff;fill-opacity:1;fill-rule:nonzero;stroke:none"
       transform="matrix(1.3333333,0,0,-1.3333333,2168.6316,279.9024)"
       clip-path="url(#clipPath56)" />
    <path
       id="path57"
       d="m 0,0 c -1.921,-2.508 -4.859,-3.526 -7.955,-3.526 -8.268,0 -13.361,6.426 -13.361,14.38 0,10.658 7.523,14.93 13.793,14.93 7.169,0 11.637,-3.841 12.891,-10.463 H -2.9 c -0.314,2.038 -2.037,3.488 -4.076,3.488 -5.917,0 -5.72,-6.23 -5.72,-8.151 0,-2.625 1.096,-7.21 6.308,-7.21 1.999,0 4.036,1.019 4.467,3.096 h -3.801 v 5.995 H 5.721 V -2.86 H 0.273 Z"
       style="fill:#ffffff;fill-opacity:1;fill-rule:nonzero;stroke:none"
       transform="matrix(1.3333333,0,0,-1.3333333,1977.5109,323.3948)"
       clip-path="url(#clipPath58)" />
    <path
       id="path59"
       d="m 0,0 h 4.506 c 1.606,0 3.801,0.274 3.801,2.782 0,1.763 -0.98,2.782 -4.272,2.782 H 0 Z M -8.621,12.226 H 7.797 c 4.859,0 9.131,-2.705 9.131,-7.995 0,-2.899 -1.333,-5.956 -4.194,-7.013 2.352,-0.902 3.801,-3.488 4.115,-6.975 0.118,-1.332 0.118,-4.781 0.94,-5.995 h -8.62 c -0.431,1.41 -0.588,2.86 -0.705,4.31 -0.196,2.665 -0.471,5.446 -3.88,5.446 H 0 v -9.756 h -8.621 z"
       style="fill:#ffffff;fill-opacity:1;fill-rule:nonzero;stroke:none"
       transform="matrix(1.3333333,0,0,-1.3333333,2001.0136,306.20533)"
       clip-path="url(#clipPath60)" />
    <path
       id="path61"
       d="m 0,0 c 2.194,0 5.563,1.45 5.563,7.68 0,6.231 -3.369,7.68 -5.563,7.68 -2.194,0 -5.564,-1.449 -5.564,-7.68 C -5.564,1.45 -2.194,0 0,0 m 0,22.335 c 8.503,0 14.185,-6.112 14.185,-14.655 0,-8.542 -5.682,-14.655 -14.185,-14.655 -8.503,0 -14.185,6.113 -14.185,14.655 0,8.543 5.682,14.655 14.185,14.655"
       style="fill:#ffffff;fill-opacity:1;fill-rule:nonzero;stroke:none"
       transform="matrix(1.3333333,0,0,-1.3333333,2044.7363,318.79707)"
       clip-path="url(#clipPath62)" />
    <path
       id="path63"
       d="m 0,0 c 0,-7.798 -4.114,-11.481 -12.735,-11.481 -8.62,0 -12.774,3.683 -12.774,11.481 v 17.163 h 8.62 V 1.92 c 0,-2.821 -0.039,-6.426 4.194,-6.426 4.075,0 4.075,3.605 4.075,6.426 V 17.163 H 0 Z"
       style="fill:#ffffff;fill-opacity:1;fill-rule:nonzero;stroke:none"
       transform="matrix(1.3333333,0,0,-1.3333333,2101.0487,312.78867)"
       clip-path="url(#clipPath64)" />
    <path
       id="path65"
       d="m 0,0 h 3.33 c 2.194,0 4.585,0.117 4.585,2.978 0,2.547 -1.959,2.704 -4.075,2.704 H 0 Z m -8.621,12.853 h 14.42 c 7.64,0 10.266,-5.604 10.266,-9.562 0,-6.739 -4.545,-9.953 -10.971,-9.953 H 0 v -8.463 h -8.621 z"
       style="fill:#ffffff;fill-opacity:1;fill-rule:nonzero;stroke:none"
       transform="matrix(1.3333333,0,0,-1.3333333,2117.0292,307.0412)"
       clip-path="url(#clipPath66)" />
  </g>
</svg>
